<svg width="24" height="24" viewBox="0 0 24 24" fill="none" xmlns="http://www.w3.org/2000/svg">
<rect width="24" height="24" rx="2" fill="#F5F5F5"/>
<path d="M18.7135 10.4599C19.1332 10.4599 19.4526 10.5876 19.6715 10.8431C19.8905 11.0985 20 11.4088 20 11.7737C20 12.2299 19.8449 12.6496 19.5347 13.0328C19.2427 13.3978 18.8412 13.5803 18.3303 13.5803H13.8412L13.2391 18.5894C13.1661 19.0639 12.9562 19.4288 12.6095 19.6843C12.281 19.9398 11.8978 20.0675 11.4599 20.0675C11.0401 20.0675 10.6934 19.9398 10.4197 19.6843C10.1642 19.4288 10.0639 19.0639 10.1186 18.5894L10.7208 13.5803H6.2865C5.86679 13.5803 5.54745 13.4526 5.32847 13.1971C5.10949 12.9234 5 12.604 5 12.2391C5 11.7828 5.14599 11.3723 5.43796 11.0073C5.74818 10.6423 6.15876 10.4599 6.66971 10.4599H11.1314L11.7336 5.45073C11.7883 4.99453 11.9799 4.63869 12.3084 4.38321C12.6369 4.12774 13.0109 4 13.4307 4C13.8504 4 14.2062 4.12774 14.4982 4.38321C14.7901 4.63869 14.9088 4.99453 14.854 5.45073L14.2518 10.4599H18.7135Z" fill="url(#paint0_linear_664_142)" fill-opacity="0.15"/>
<path d="M6.59512 18.5C5.45404 18.5 4.46159 18.2856 3.61777 17.8567C2.77395 17.4179 2.1267 16.7996 1.67602 16.0017C1.22534 15.2039 1 14.2764 1 13.2192C1 11.7532 1.26369 10.4517 1.79108 9.31473C2.32806 8.17779 3.05202 7.30015 3.96297 6.68182C4.87391 6.05351 5.88554 5.73936 6.99786 5.73936C8.03346 5.73936 8.81975 6.0186 9.35672 6.5771C9.8937 7.12562 10.1622 7.85366 10.1622 8.76122C10.1622 9.36958 10.0567 9.85827 9.84576 10.2273C9.64439 10.5963 9.35193 10.7808 8.96837 10.7808C8.69988 10.7808 8.48893 10.716 8.33551 10.5863C8.18208 10.4567 8.10537 10.2672 8.10537 10.0178C8.10537 9.92808 8.12455 9.76352 8.16291 9.52417C8.22044 9.22497 8.24921 8.98562 8.24921 8.8061C8.24921 7.89854 7.78414 7.44476 6.85402 7.44476C6.22115 7.44476 5.61705 7.65919 5.04172 8.08803C4.46639 8.51688 4.00133 9.15017 3.64654 9.98792C3.29175 10.8157 3.11435 11.803 3.11435 12.9499C3.11435 14.1467 3.43558 15.0742 4.07804 15.7325C4.72049 16.3807 5.66979 16.7048 6.92594 16.7048C7.54922 16.7048 8.17729 16.625 8.81016 16.4655C9.45261 16.2959 10.1622 16.0416 10.9389 15.7025C11.0827 15.6427 11.2026 15.6128 11.2985 15.6128C11.4519 15.6128 11.567 15.6726 11.6437 15.7923C11.7204 15.912 11.7587 16.0666 11.7587 16.256C11.7587 16.8644 11.4423 17.3132 10.8094 17.6024C10.1286 17.9116 9.41905 18.141 8.68071 18.2906C7.95195 18.4302 7.25676 18.5 6.59512 18.5Z" fill="url(#paint1_linear_664_142)"/>
<path d="M22.3671 11.9626C22.5877 11.9626 22.7459 12.0125 22.8418 12.1122C22.9473 12.2119 23 12.3416 23 12.5012C23 12.7605 22.9233 12.9898 22.7699 13.1893C22.626 13.3888 22.3959 13.4935 22.0795 13.5035C21.3124 13.5234 20.6315 13.4636 20.037 13.3239C19.3562 14.8099 18.5316 16.0466 17.5631 17.0339C16.6042 18.0113 15.6405 18.5 14.672 18.5C13.6748 18.5 12.9317 17.8966 12.4426 16.6899C11.9536 15.4831 11.7091 13.8525 11.7091 11.798C11.7091 10.0428 11.8289 8.46701 12.0687 7.07077C12.155 6.55217 12.2748 6.20311 12.4282 6.02359C12.5913 5.8341 12.8645 5.73936 13.2481 5.73936C13.881 5.73936 14.1974 6.02359 14.1974 6.59206C14.1974 6.6519 14.1878 6.7616 14.1686 6.92117C13.881 8.71634 13.7371 10.342 13.7371 11.798C13.7371 13.3239 13.857 14.4858 14.0967 15.2837C14.346 16.0715 14.7152 16.4655 15.2042 16.4655C15.7029 16.4655 16.2446 16.1064 16.8295 15.3884C17.4145 14.6703 17.9514 13.7677 18.4405 12.6807C17.8556 12.3017 17.4145 11.813 17.1172 11.2146C16.82 10.6063 16.6713 9.90813 16.6713 9.12025C16.6713 8.33237 16.7864 7.66916 17.0165 7.13061C17.2563 6.58209 17.5775 6.17319 17.9802 5.90391C18.3925 5.63464 18.848 5.5 19.3466 5.5C19.9603 5.5 20.4446 5.72938 20.7993 6.18815C21.1637 6.64691 21.3459 7.27522 21.3459 8.07307C21.3459 9.21998 21.1062 10.4716 20.6267 11.828C21.135 11.9177 21.7151 11.9626 22.3671 11.9626ZM18.124 9.01554C18.124 9.9929 18.4261 10.716 19.0302 11.1847C19.4042 10.0677 19.5911 9.14519 19.5911 8.41715C19.5911 7.99827 19.5384 7.69409 19.4329 7.5046C19.3275 7.30514 19.1836 7.20541 19.0014 7.20541C18.7425 7.20541 18.5316 7.36498 18.3686 7.68412C18.2056 7.99329 18.124 8.43709 18.124 9.01554Z" fill="url(#paint2_linear_664_142)"/>
<defs>
<linearGradient id="paint0_linear_664_142" x1="2.72831" y1="11.8635" x2="22.4021" y2="11.8868" gradientUnits="userSpaceOnUse">
<stop/>
<stop offset="1" stop-color="#818181"/>
</linearGradient>
<linearGradient id="paint1_linear_664_142" x1="10.5675" y1="-0.89778" x2="10.5675" y2="25.2817" gradientUnits="userSpaceOnUse">
<stop/>
<stop offset="1" stop-color="#818181"/>
</linearGradient>
<linearGradient id="paint2_linear_664_142" x1="10.5675" y1="-0.89778" x2="10.5675" y2="25.2817" gradientUnits="userSpaceOnUse">
<stop/>
<stop offset="1" stop-color="#818181"/>
</linearGradient>
</defs>
</svg>
